<?xml version="1.0" encoding="UTF-8"?><svg id="Layer_1" xmlns="http://www.w3.org/2000/svg" viewBox="0 0 349.41 26"><defs><style>.cls-1{fill:#fff;}.cls-2{fill:#039;}.cls-3{fill:#0082d5;}.cls-4{fill:#9c0;}</style></defs><g><g><path class="cls-1" d="m63.86,23.77h-27.27v-3.62h27.27v3.62Zm-6.81-13.11v-5.22h-19.25V1.75h24.67v8.29c0,2.7-.25,5.74-.81,7.87h-5.42c.56-2.07.81-4.89.81-7.24Z"/><path class="cls-1" d="m79.16,15.7h-12.57V6.95h9.72v-2.06h-9.72V1.57h15.02v8.68h-9.75v2.16h8.02c2.54,0,3.96-.25,5.05-.82V1.3h5.42v16.98h-5.42v-3.5c-1.05.64-2.85.92-5.76.92Zm11.55,5.48v3.52h-22.51v-7.78h5.42v4.26h17.09Z"/><path class="cls-1" d="m125.55,19.19h-4.97v-3.65h25.94v3.65h-4.93v5.51h-5.31v-5.51h-5.4v5.51h-5.34v-5.51Zm15.55-9.51h4.5v3.6h-24.08v-3.6h3.94v-4.78h-3.48V1.3h23.15v3.6h-3.51v1.75c0,1.1-.19,2.28-.53,3.03Zm-4.84-4.78h-5.4v4.78h4.93c.31-.73.47-1.83.47-2.8v-1.98Z"/><path class="cls-1" d="m193.58,1.3h5.42v9.02h3.99v3.65h-3.99v10.74h-5.42V1.3Zm-10.17.02c-4.35,0-7.88,3.53-7.88,7.88v6.47c0,4.35,3.53,7.88,7.88,7.88s7.88-3.53,7.88-7.88v-6.47c0-4.35-3.53-7.88-7.88-7.88Zm2.52,16.08c0,1.39-1.13,2.52-2.52,2.52s-2.52-1.13-2.52-2.52V7.47c0-1.39,1.13-2.52,2.52-2.52s2.52,1.13,2.52,2.52v9.94Z"/><path class="cls-1" d="m167.46,24.7v-4.41s-.14.08-.14.08c-3.34,1.95-7.48,2.56-10.37,2.74-.92.06-2.02.09-3.16.09-1.6,0-3.21-.06-4.53-.17V1.6h17.08l-3.35,4.03h-8.39v4.66h7.56l-3.42,4.11h-4.15v4.82h.1c4.37-.15,10.16-1.28,12.7-1.99l.07-.02v-3.65h-6.54l3.62-4.35,2.92-.02V1.3h5.34v23.4h-5.33Z"/><g><path class="cls-1" d="m97.13,9.72h-3.03v-3.3h3.16c2.45,0,4.58-.02,5.92-.3.06-.35.12-.75.12-1.17h-9.2V1.57h14.52v2.45c0,.75-.06,1.45-.19,2.1h4V1.3h5.42v13.16h-5.42v-4.72h-5.48c-2.29,3.22-6.91,4.87-13.5,5.24v-3.42c3.53-.25,6.07-.85,7.68-2.05-1.18.15-2.57.2-4,.2Z"/><path class="cls-1" d="m95.71,15.43v9.27h15.09l1.84-3.12v3.12h5.21v-9.27h-22.14Zm16.97,5.99h-11.79v-2.28h11.79v2.28Z"/></g></g><g><path class="cls-1" d="m230.35,23.78h-25.89v-3.62h25.89v3.62Zm-1.4-6.42l-1.44-3.57h-16.25v-2.5h14.91l1.31-3.43h-16.22v-2.51h16.24l1.45-3.6h-23.1v15.61h23.1Z"/><g><g><path class="cls-1" d="m248.75,2.83v3.3h-16.94v-3.3h5.82v-1.53h5.42v1.53h5.7Zm1.89-1.52h5.42v5.54h3.81v3.62h-3.81v5.32h-5.42V1.3Z"/><path class="cls-1" d="m256.06,16.83v-.15h-22.2v3.6h16.79c-.02,1.57-.1,3.13-.45,4.42h5.42c.56-2.12.44-5.17.44-7.87Z"/></g><path class="cls-1" d="m243.3,6.6h-6.04c-2.6,0-4.71,2.11-4.71,4.71s2.11,4.71,4.71,4.71h6.04c2.6,0,4.71-2.11,4.71-4.71s-2.11-4.71-4.71-4.71Zm-1.97,6.24h-2.1c-.85,0-1.54-.69-1.54-1.54s.69-1.54,1.54-1.54h2.1c.85,0,1.54.69,1.54,1.54s-.69,1.54-1.54,1.54Z"/></g><g><polygon class="cls-1" points="286.05 21.53 286.05 24.7 263.93 24.7 263.93 18.19 269.35 18.19 269.35 21.53 286.05 21.53"/><path class="cls-1" d="m280.66,19.23v-1.25h-5.73v-3.08h5.73v-1.6l-.12.04c-1.01.33-2.92.88-5.01.88h-3.38v3.34h-5.36v-3.33h-5.45v-3.28l14.33.09c1.9,0,3-.32,4.92-.83l.07-.02V1.3h5.02v17.93h-5.02Z"/><path class="cls-1" d="m274.38,1.3h-7.48c-2.51,0-4.55,2.03-4.55,4.55s2.04,4.55,4.55,4.55h7.48c2.51,0,4.55-2.03,4.55-4.55s-2.04-4.55-4.55-4.55Zm-1.86,5.99h-3.76c-.8,0-1.45-.65-1.45-1.45s.65-1.45,1.45-1.45h3.76c.8,0,1.45.65,1.45,1.45s-.65,1.45-1.45,1.45Z"/></g></g></g><path class="cls-1" d="m322,14.67h-25.85v-3.42h10.21v-2.16h5.3v2.16h10.33v3.42Zm-24.57,5.43c0-1.38.76-2.36,2.16-3.1,1.98-1.03,5.27-1.47,9.51-1.47s7.5.44,9.48,1.47c1.4.74,2.19,1.72,2.19,3.1s-.79,2.36-2.19,3.1c-1.98,1.06-5.27,1.45-9.48,1.45s-7.53-.39-9.51-1.45c-1.4-.74-2.16-1.72-2.16-3.1Zm22.83-15.44h-8.26c1.01,1.45,4.3,2.09,8.57,2.21v3.25c-4.05-.07-8.99-.91-11.52-2.43-2.5,1.55-7.16,2.38-11.49,2.43v-3.25c4.15-.12,7.5-.71,8.51-2.21h-8.17V1.35h22.38v3.32Zm-17.62,15.44c0,.32.21.52.55.69.88.44,2.77.59,5.91.59s5-.15,5.88-.59c.34-.17.52-.37.52-.69,0-.29-.18-.52-.52-.71-.88-.39-2.77-.59-5.88-.59s-5.03.2-5.91.59c-.34.2-.55.42-.55.71Z"/><path class="cls-1" d="m348.04,11.45h-17.41v2.29h17.74v3.56h-9.02v3.02h10.06v3.52h-25.48v-3.52h10.09v-3.02h-8.72V7.94h17.41v-2.24h-17.41v-3.54h22.74v9.29Z"/><g><path class="cls-1" d="m13,26c-7.17,0-13-5.83-13-13S5.83,0,13,0h12.07c.36,0,.7.21.85.54.15.33.1.72-.14,1l-5.15,6.03c-.18.21-.44.33-.71.33h-6.92c-2.81,0-5.1,2.29-5.1,5.1s2.29,5.1,5.1,5.1h5.82c-1.79-1.18-3.87-1.81-6.06-1.81-.36,0-.7-.21-.85-.55-.15-.33-.1-.72.14-1l3.09-3.62c.18-.21.44-.33.71-.33h9.21c.52,0,.94.42.94.94v13.34c0,.52-.42.94-.94.94h-12.07Z"/><path class="cls-3" d="m12.76,15.35c3.39,0,6.46,1.42,8.64,3.68h-8.4c-3.33,0-6.03-2.7-6.03-6.03s2.7-6.03,6.03-6.03h6.92L25.07.94h-12.07C6.34.94.94,6.34.94,13s5.4,12.06,12.07,12.06h12.07v-13.34h-9.21l-3.09,3.62Z"/><path class="cls-2" d="m19.04.94C12.48.94,7.14,6.17,6.98,12.69c.16-3.19,2.8-5.72,6.03-5.72h6.92L25.07.94h-6.03Z"/><path class="cls-2" d="m6.98,13.31c.17,6.52,5.5,11.75,12.06,11.75h6.03v-6.03h-12.07c-3.23,0-5.86-2.53-6.03-5.72Z"/><path class="cls-4" d="m15.86,11.73l-3.09,3.62c5.85.02,10.71,4.19,11.8,9.72h.5v-13.34h-9.21Z"/></g></svg>